<?xml version="1.0" encoding="UTF-8"?>
<svg id="Ebene_1" xmlns="http://www.w3.org/2000/svg" version="1.1" xmlns:xlink="http://www.w3.org/1999/xlink" viewBox="0 0 334.22 226.77">
  <!-- Generator: Adobe Illustrator 29.3.1, SVG Export Plug-In . SVG Version: 2.1.0 Build 151)  -->
  <defs>
    <style>
      .st0 {
        fill: url(#Unbenannter_Verlauf_21);
      }

      .st1 {
        fill: url(#Unbenannter_Verlauf_26);
      }

      .st2 {
        fill: url(#Unbenannter_Verlauf_210);
      }

      .st3 {
        fill: url(#Unbenannter_Verlauf_214);
      }

      .st4 {
        fill: url(#Unbenannter_Verlauf_27);
      }

      .st5 {
        fill: url(#Unbenannter_Verlauf_24);
      }

      .st6 {
        fill: url(#Unbenannter_Verlauf_22);
      }

      .st7 {
        fill: url(#Unbenannter_Verlauf_212);
      }

      .st8 {
        fill: url(#Unbenannter_Verlauf_211);
      }

      .st9 {
        fill: url(#Unbenannter_Verlauf_23);
      }

      .st10 {
        fill: url(#Unbenannter_Verlauf_29);
      }

      .st11 {
        fill: url(#Unbenannter_Verlauf_213);
      }

      .st12 {
        fill: url(#Unbenannter_Verlauf_28);
      }

      .st13 {
        fill: url(#Unbenannter_Verlauf_2);
      }

      .st14 {
        fill: url(#Unbenannter_Verlauf_25);
      }
    </style>
    <linearGradient id="Unbenannter_Verlauf_2" data-name="Unbenannter Verlauf 2" x1="-4.44" y1="213.71" x2="255.95" y2="-46.68" gradientUnits="userSpaceOnUse">
      <stop offset="0" stop-color="#3d76ba"/>
      <stop offset=".29" stop-color="#4cc1f0"/>
      <stop offset=".55" stop-color="#71b852"/>
      <stop offset=".83" stop-color="#a4c61d"/>
      <stop offset="1" stop-color="#ffdb05"/>
    </linearGradient>
    <linearGradient id="Unbenannter_Verlauf_21" data-name="Unbenannter Verlauf 2" x1="25.28" y1="243.44" x2="285.68" y2="-16.96" xlink:href="#Unbenannter_Verlauf_2"/>
    <linearGradient id="Unbenannter_Verlauf_22" data-name="Unbenannter Verlauf 2" x1="17.78" y1="235.94" x2="278.18" y2="-24.46" xlink:href="#Unbenannter_Verlauf_2"/>
    <linearGradient id="Unbenannter_Verlauf_23" data-name="Unbenannter Verlauf 2" x1="20.23" y1="238.38" x2="280.62" y2="-22.01" xlink:href="#Unbenannter_Verlauf_2"/>
    <linearGradient id="Unbenannter_Verlauf_24" data-name="Unbenannter Verlauf 2" x1="-9.64" y1="208.52" x2="250.76" y2="-51.88" xlink:href="#Unbenannter_Verlauf_2"/>
    <linearGradient id="Unbenannter_Verlauf_25" data-name="Unbenannter Verlauf 2" x1="-1.85" y1="216.31" x2="258.55" y2="-44.09" xlink:href="#Unbenannter_Verlauf_2"/>
    <linearGradient id="Unbenannter_Verlauf_26" data-name="Unbenannter Verlauf 2" x1="81.72" y1="299.87" x2="342.11" y2="39.47" xlink:href="#Unbenannter_Verlauf_2"/>
    <linearGradient id="Unbenannter_Verlauf_27" data-name="Unbenannter Verlauf 2" x1="-4.94" y1="213.21" x2="255.45" y2="-47.19" xlink:href="#Unbenannter_Verlauf_2"/>
    <linearGradient id="Unbenannter_Verlauf_28" data-name="Unbenannter Verlauf 2" x1="15.87" y1="234.02" x2="276.26" y2="-26.37" xlink:href="#Unbenannter_Verlauf_2"/>
    <linearGradient id="Unbenannter_Verlauf_29" data-name="Unbenannter Verlauf 2" x1="21.02" y1="239.17" x2="281.42" y2="-21.22" xlink:href="#Unbenannter_Verlauf_2"/>
    <linearGradient id="Unbenannter_Verlauf_210" data-name="Unbenannter Verlauf 2" x1="62.37" y1="280.53" x2="322.77" y2="20.13" xlink:href="#Unbenannter_Verlauf_2"/>
    <linearGradient id="Unbenannter_Verlauf_211" data-name="Unbenannter Verlauf 2" x1="46.21" y1="264.36" x2="306.6" y2="3.97" xlink:href="#Unbenannter_Verlauf_2"/>
    <linearGradient id="Unbenannter_Verlauf_212" data-name="Unbenannter Verlauf 2" x1="55.43" y1="273.58" x2="315.83" y2="13.19" xlink:href="#Unbenannter_Verlauf_2"/>
    <linearGradient id="Unbenannter_Verlauf_213" data-name="Unbenannter Verlauf 2" x1="47.51" y1="265.66" x2="307.9" y2="5.26" xlink:href="#Unbenannter_Verlauf_2"/>
    <linearGradient id="Unbenannter_Verlauf_214" data-name="Unbenannter Verlauf 2" x1="77.26" y1="295.42" x2="337.66" y2="35.02" xlink:href="#Unbenannter_Verlauf_2"/>
  </defs>
  <path class="st13" d="M141.97,50.32c.09.32.36.56.68.62l29.99,5.46c.27.05.54-.06.72-.27,1.61-2.03,3.78-2.87,6.5-2.53.2.02.4-.07.51-.24l10.61-16.69c.09-.14,0-.32-.16-.35-12.41-1.59-24.61-.66-36.6,2.79-5.45,1.57-10.56,3.83-15.32,6.78-.09.05-.09.18-.01.24,1.59,1.15,2.61,2.54,3.08,4.19Z"/>
  <path class="st0" d="M184.38,56.19c1.02,1.79,1.35,3.69.98,5.71-.06.3.07.6.32.78l18.17,12.8c.17.12.38.13.57.05.11-.04.48-.2,1.11-.5,2.49-1.16,5.4.06,6.97,2.15.13.18.38.24.58.14l26.31-13.32c.14-.07.18-.26.07-.38-11.12-12.71-25.91-22.05-42.4-26.12-.3-.07-.61.05-.78.3l-11.85,17.5c-.18.26-.19.6-.03.88Z"/>
  <path class="st6" d="M152.6,85.46c-3.51,2.93-7.04,5.85-10.6,8.72l-12.6,9.97c-.33.26-.53.66-.54,1.09-.03,1.5-.48,2.94-1.36,4.3-.12.19-.12.43.01.61l15.1,21.14c-1.79-4.73-2.77-9.88-2.77-15.25,0-12.02,4.9-22.86,12.76-30.58Z"/>
  <path class="st9" d="M200.12,78.25l-17.12-12.69c-.14-.1-.32-.09-.45.01-1.82,1.52-4.14,1.7-6.95.56-.2-.08-.43-.05-.59.09-1.64,1.37-3.27,2.78-4.89,4.21-4.16,3.68-8.36,7.3-12.6,10.9,6.74-4.83,14.95-7.67,23.81-7.67,6.77,0,13.16,1.66,18.8,4.59Z"/>
  <path class="st5" d="M118.31,99.68c.2.15.46.2.7.12.49-.17.8-.52.95-1.06,3.22-11.77,6.98-25.65,11.31-41.64.07-.27,0-.56-.2-.76-1.37-1.39-2.05-3.16-2.03-5.31,0-.09-.1-.13-.17-.08-3.95,3.31-7.22,5.99-10.28,9.25-3.6,3.83-6.6,7.53-8.98,11.09-3.08,4.6-5.66,9.65-7.75,15.13-.08.21-.01.45.17.59l16.28,12.67Z"/>
  <path class="st14" d="M124.56,99.14l2.38,1.51c.08.05.19.06.28.01.2-.11.39-.23.57-.38,5.02-4.18,9.36-7.79,13.04-10.82,10.98-9.06,18.59-15.67,31.37-26.68.2-.17.29-.45.22-.71l-.28-1.04c-.06-.23-.25-.41-.49-.46l-30.11-5.92c-.15-.03-.3.03-.38.15-1.26,1.84-2.95,2.94-5.08,3.3-.35.06-.63.32-.72.67-3.45,13.32-7.14,26.53-11.07,39.62-.08.28.03.58.28.74Z"/>
  <path class="st1" d="M239.89,162.63l-30.27-13.32c-.11-.05-.23-.01-.3.09l-6.28,9.3-6.98,10.5c-.13.19-.14.43-.02.62,1.32,2.34,1.35,4.7.08,7.1-.4.76-.25.9.23,1.52,2.74,3.55,5.65,7.23,8.75,11.03.19.23.5.31.77.21,2.62-.97,5.08-2.12,7.37-3.42,2.13-.95,4.62-2.41,7.46-4.38,7.47-5.17,13.91-11.41,19.31-18.73.13-.17.06-.42-.14-.51Z"/>
  <path class="st4" d="M116.4,108.2c-.7-1.25-.98-2.59-.83-4,.01-.15-.05-.3-.17-.39l-15.55-12.1c-.12-.09-.3-.05-.35.1-1.02,2.73-1.78,5.53-2.26,8.4-.57,3.37-1.2,7.51-1.3,11.16-.14,4.77-.02,9.53.72,14.42.03.2.27.29.42.15l19.19-16.96c.22-.2.28-.52.13-.78Z"/>
  <path class="st12" d="M118.93,111.77l-21.05,19.38c-.08.08-.14.19-.15.3-.03.35,0,.71.08,1.08,2.22,9.57,6.2,18.34,11.93,26.32.09.13.29.13.38-.01,1.16-1.91,2.83-3.02,5-3.31.15-.02.27-.14.28-.29l3.7-43.38c0-.09-.1-.15-.17-.08Z"/>
  <path class="st10" d="M123.19,112.19l-3.51,43.68s0,.08.02.12c.4.78,1.06.62,1.81.14,5.63-3.64,11.77-7.49,18.44-11.56.74-.45,1.32-.82,1.72-1.11.22-.16.35-.42.35-.69-.02-1.37.25-2.57.82-3.62.12-.21.1-.46-.04-.66l-18.92-26.49c-.21-.29-.67-.17-.7.19Z"/>
  <path class="st2" d="M169.87,156.78c5.51,3.72,10.92,7.44,16.23,11.14.27.18.61.21.89.05,1.38-.75,2.9-1.04,4.55-.86.35.03.68-.13.87-.42l8.43-13.26c-5.82,3.17-12.46,4.98-19.52,4.98-3.97,0-7.81-.57-11.45-1.64Z"/>
  <path class="st8" d="M147.09,149.4c-.05-.26-.22-.48-.46-.59-1.01-.47-1.89-1.08-2.65-1.82-.19-.18-.48-.21-.7-.06-5.52,3.64-10.96,7.09-16.33,10.35-1.19.72-2.49,1.51-3.9,2.37-.18.11-.27.31-.24.52.23,1.41.14,2.77-.26,4.09-.07.24.01.51.22.65,8.82,6.24,18.08,12.87,27.77,19.87,1.02.73,1.5,1.3,2.58.51.22-.16.33-.43.28-.7l-6.32-35.2Z"/>
  <path class="st7" d="M183.87,173.92l.19-2.28c.02-.3-.12-.59-.37-.76l-32.47-21.99c-.1-.07-.23.02-.21.14l6.34,35.27c.02.12.12.22.24.25,1.12.29,2.1.77,2.95,1.46.24.2.58.23.86.08l22.01-11.46c.27-.14.44-.41.47-.71Z"/>
  <path class="st11" d="M149.72,188.9c-2.86-1.87-6.26-4.24-10.21-7.12-7.57-5.51-13.98-10.19-19.22-14.05-.27-.2-.62-.22-.92-.07l-1.99,1.04c-.13.07-.16.23-.06.34,7.49,7.96,16.17,14.35,26.04,19.19,2.2,1.08,4.18,1.9,5.96,2.49.19.06.38-.06.42-.25l.2-1.1c.04-.18-.05-.37-.2-.47Z"/>
  <path class="st3" d="M193.09,180.22c-.08-.12-.23-.17-.37-.14-2.56.59-4.83.13-6.81-1.38-.22-.16-.51-.19-.75-.07l-21.8,10.79c-.25.12-.4.38-.38.66.08,1.29-.03,2.59-.34,3.91-.03.13.06.26.19.28,12.88,2.01,25.58,1.15,38.11-2.58.14-.04.19-.2.11-.32l-7.96-11.15Z"/>
</svg>