<?xml version="1.0" encoding="UTF-8"?>
<svg id="Ebene_1" xmlns="http://www.w3.org/2000/svg" version="1.1" xmlns:xlink="http://www.w3.org/1999/xlink" viewBox="0 0 334.22 226.77">
  <!-- Generator: Adobe Illustrator 29.3.1, SVG Export Plug-In . SVG Version: 2.1.0 Build 151)  -->
  <defs>
    <style>
      .st0 {
        fill: url(#Unbenannter_Verlauf_21);
      }

      .st1 {
        fill: url(#Unbenannter_Verlauf_26);
      }

      .st2 {
        fill: url(#Unbenannter_Verlauf_210);
      }

      .st3 {
        fill: url(#Unbenannter_Verlauf_214);
      }

      .st4 {
        fill: url(#Unbenannter_Verlauf_27);
      }

      .st5 {
        fill: #1e1e1c;
      }

      .st6 {
        fill: url(#Unbenannter_Verlauf_24);
      }

      .st7 {
        fill: url(#Unbenannter_Verlauf_22);
      }

      .st8 {
        fill: url(#Unbenannter_Verlauf_212);
      }

      .st9 {
        fill: url(#Unbenannter_Verlauf_211);
      }

      .st10 {
        fill: url(#Unbenannter_Verlauf_23);
      }

      .st11 {
        fill: url(#Unbenannter_Verlauf_29);
      }

      .st12 {
        fill: url(#Unbenannter_Verlauf_213);
      }

      .st13 {
        fill: url(#Unbenannter_Verlauf_28);
      }

      .st14 {
        fill: url(#Unbenannter_Verlauf_2);
      }

      .st15 {
        fill: url(#Unbenannter_Verlauf_25);
      }
    </style>
    <linearGradient id="Unbenannter_Verlauf_2" data-name="Unbenannter Verlauf 2" x1="-37.75" y1="234.01" x2="281.93" y2="-85.67" gradientUnits="userSpaceOnUse">
      <stop offset="0" stop-color="#3d76ba"/>
      <stop offset=".29" stop-color="#4cc1f0"/>
      <stop offset=".55" stop-color="#71b852"/>
      <stop offset=".83" stop-color="#a4c61d"/>
      <stop offset="1" stop-color="#ffdb05"/>
    </linearGradient>
    <linearGradient id="Unbenannter_Verlauf_21" data-name="Unbenannter Verlauf 2" x1="-1.25" y1="270.51" x2="318.43" y2="-49.18" xlink:href="#Unbenannter_Verlauf_2"/>
    <linearGradient id="Unbenannter_Verlauf_22" data-name="Unbenannter Verlauf 2" x1="-5.67" y1="266.09" x2="314.01" y2="-53.6" xlink:href="#Unbenannter_Verlauf_2"/>
    <linearGradient id="Unbenannter_Verlauf_23" data-name="Unbenannter Verlauf 2" x1="-20.3" y1="251.46" x2="299.39" y2="-68.22" xlink:href="#Unbenannter_Verlauf_2"/>
    <linearGradient id="Unbenannter_Verlauf_24" data-name="Unbenannter Verlauf 2" x1="-44.43" y1="227.33" x2="275.25" y2="-92.35" xlink:href="#Unbenannter_Verlauf_2"/>
    <linearGradient id="Unbenannter_Verlauf_25" data-name="Unbenannter Verlauf 2" x1="-34.56" y1="237.2" x2="285.12" y2="-82.49" xlink:href="#Unbenannter_Verlauf_2"/>
    <linearGradient id="Unbenannter_Verlauf_26" data-name="Unbenannter Verlauf 2" x1="68.03" y1="339.79" x2="387.71" y2="20.1" xlink:href="#Unbenannter_Verlauf_2"/>
    <linearGradient id="Unbenannter_Verlauf_27" data-name="Unbenannter Verlauf 2" x1="-44.42" y1="227.34" x2="275.26" y2="-92.35" xlink:href="#Unbenannter_Verlauf_2"/>
    <linearGradient id="Unbenannter_Verlauf_28" data-name="Unbenannter Verlauf 2" x1="-12.2" y1="259.56" x2="307.48" y2="-60.13" xlink:href="#Unbenannter_Verlauf_2"/>
    <linearGradient id="Unbenannter_Verlauf_29" data-name="Unbenannter Verlauf 2" x1="-.55" y1="271.2" x2="319.13" y2="-48.48" xlink:href="#Unbenannter_Verlauf_2"/>
    <linearGradient id="Unbenannter_Verlauf_210" data-name="Unbenannter Verlauf 2" x1="40.41" y1="312.17" x2="360.1" y2="-7.51" xlink:href="#Unbenannter_Verlauf_2"/>
    <linearGradient id="Unbenannter_Verlauf_211" data-name="Unbenannter Verlauf 2" x1="24.44" y1="296.19" x2="344.12" y2="-23.49" xlink:href="#Unbenannter_Verlauf_2"/>
    <linearGradient id="Unbenannter_Verlauf_212" data-name="Unbenannter Verlauf 2" x1="35.76" y1="307.52" x2="355.44" y2="-12.17" xlink:href="#Unbenannter_Verlauf_2"/>
    <linearGradient id="Unbenannter_Verlauf_213" data-name="Unbenannter Verlauf 2" x1="26.03" y1="297.79" x2="345.71" y2="-21.9" xlink:href="#Unbenannter_Verlauf_2"/>
    <linearGradient id="Unbenannter_Verlauf_214" data-name="Unbenannter Verlauf 2" x1="62.56" y1="334.32" x2="382.25" y2="14.64" xlink:href="#Unbenannter_Verlauf_2"/>
  </defs>
  <g>
    <g>
      <path class="st5" d="M38.43,117.21h-1.09c-.26,0-.49.19-.53.45-.38,2.27-1.39,4.04-3,5.26-1.63,1.23-3.67,1.86-6.07,1.86-1.79,0-3.35-.33-4.66-.98-1.31-.65-2.42-1.53-3.28-2.6-.87-1.08-1.53-2.32-1.96-3.68-.43-1.36-.65-2.76-.65-4.15,0-1.5.23-2.95.67-4.33.44-1.36,1.1-2.6,1.97-3.66.86-1.05,1.94-1.89,3.21-2.5,1.27-.61,2.76-.91,4.43-.91,1.55,0,2.97.28,4.25.84,1.25.55,2.3,1.36,3.09,2.41.8,1.05,1.3,2.34,1.49,3.85.03.27.26.47.54.47h1.09c.15,0,.3-.07.41-.18.1-.12.15-.27.13-.42-.21-1.8-.82-3.41-1.8-4.77-.98-1.36-2.27-2.43-3.84-3.18-1.56-.74-3.36-1.12-5.36-1.12s-3.9.38-5.46,1.14c-1.56.76-2.88,1.79-3.92,3.08-1.03,1.28-1.81,2.73-2.32,4.3-.5,1.56-.76,3.17-.76,4.78v.41c0,1.5.25,3.04.74,4.59.49,1.56,1.27,3.01,2.3,4.31,1.04,1.31,2.38,2.39,3.98,3.19,1.61.8,3.53,1.21,5.71,1.21,2.04,0,3.87-.38,5.43-1.12,1.57-.75,2.87-1.82,3.87-3.17,1-1.35,1.65-2.95,1.93-4.75.02-.16-.02-.32-.12-.44-.1-.12-.25-.19-.41-.19Z"/>
      <path class="st5" d="M71.2,104.02c-1.12-1.27-2.49-2.29-4.08-3.03-1.59-.74-3.42-1.12-5.44-1.12s-3.85.38-5.45,1.12c-1.6.74-2.98,1.76-4.1,3.04-1.11,1.27-1.98,2.7-2.56,4.26-.59,1.56-.88,3.19-.88,4.86v.41c0,1.62.28,3.23.85,4.8.56,1.57,1.4,3.02,2.49,4.29,1.1,1.29,2.47,2.33,4.08,3.09,1.62.77,3.49,1.16,5.58,1.16s3.96-.39,5.56-1.16c1.6-.76,2.97-1.8,4.06-3.09,1.09-1.28,1.92-2.72,2.47-4.28.55-1.56.83-3.16.83-4.78v-.44c0-1.66-.29-3.3-.86-4.85-.58-1.56-1.43-2.99-2.55-4.26ZM61.68,124.77c-1.74,0-3.3-.32-4.64-.95-1.34-.63-2.47-1.5-3.38-2.57-.91-1.09-1.62-2.32-2.09-3.68-.48-1.36-.72-2.77-.72-4.2s.25-2.94.75-4.29c.49-1.36,1.22-2.58,2.15-3.65.93-1.06,2.07-1.91,3.4-2.53,1.32-.62,2.85-.93,4.52-.93s3.2.31,4.52.93c1.33.62,2.47,1.47,3.38,2.53.92,1.06,1.64,2.29,2.12,3.65.49,1.36.73,2.81.73,4.3s-.24,2.84-.7,4.2c-.46,1.36-1.16,2.59-2.07,3.68-.91,1.08-2.04,1.94-3.36,2.57-1.32.63-2.88.95-4.62.95Z"/>
      <path class="st5" d="M106.71,100.47h-1.09c-.3,0-.54.24-.54.54v22.56l-14.92-22.86c-.1-.15-.27-.25-.45-.25h-2.07c-.3,0-.54.24-.54.54v24.78c0,.3.24.54.54.54h1.09c.3,0,.54-.24.54-.54v-22.56l14.92,22.86c.1.15.27.25.45.25h2.07c.3,0,.54-.24.54-.54v-24.78c0-.3-.24-.54-.54-.54Z"/>
      <path class="st5" d="M141.4,100.47h-1.09c-.3,0-.54.24-.54.54v22.56l-14.92-22.86c-.1-.15-.27-.25-.45-.25h-2.07c-.3,0-.54.24-.54.54v24.78c0,.3.24.54.54.54h1.09c.3,0,.54-.24.54-.54v-22.56l14.92,22.86c.1.15.27.25.45.25h2.07c.3,0,.54-.24.54-.54v-24.78c0-.3-.24-.54-.54-.54Z"/>
      <path class="st5" d="M170.72,124.23h-12.08v-9.98h10.76c.3,0,.54-.24.54-.54v-1.02c0-.3-.24-.54-.54-.54h-10.76v-9.57h11.64c.3,0,.54-.24.54-.54v-1.02c0-.3-.24-.54-.54-.54h-13.27c-.3,0-.54.24-.54.54v24.78c0,.3.24.54.54.54h13.71c.3,0,.54-.24.54-.54v-1.02c0-.3-.24-.54-.54-.54Z"/>
      <path class="st5" d="M205.07,117.21h-1.09c-.26,0-.49.19-.53.45-.38,2.27-1.39,4.04-3,5.26-1.63,1.23-3.67,1.86-6.07,1.86-1.79,0-3.35-.33-4.66-.98-1.31-.65-2.42-1.53-3.28-2.6-.87-1.08-1.53-2.32-1.96-3.68-.43-1.36-.65-2.76-.65-4.15,0-1.5.23-2.95.67-4.33.44-1.36,1.1-2.6,1.97-3.66.86-1.05,1.94-1.89,3.21-2.5,1.27-.61,2.76-.91,4.43-.91,1.55,0,2.97.28,4.25.84,1.25.55,2.3,1.36,3.09,2.41.8,1.05,1.3,2.34,1.49,3.85.03.27.26.47.54.47h1.09c.15,0,.3-.07.41-.18.1-.12.15-.27.13-.42-.21-1.8-.82-3.41-1.8-4.77-.98-1.36-2.27-2.43-3.84-3.18-1.56-.74-3.36-1.12-5.36-1.12s-3.9.38-5.46,1.14c-1.56.76-2.88,1.79-3.92,3.08-1.03,1.28-1.81,2.73-2.32,4.3-.5,1.56-.76,3.17-.76,4.78v.41c0,1.5.25,3.04.74,4.59.49,1.56,1.27,3.01,2.3,4.31,1.04,1.31,2.38,2.39,3.98,3.19,1.61.8,3.53,1.21,5.71,1.21,2.04,0,3.87-.38,5.43-1.12,1.57-.75,2.87-1.82,3.87-3.17,1-1.35,1.65-2.95,1.93-4.75.02-.16-.02-.32-.12-.44-.1-.12-.25-.19-.41-.19Z"/>
      <path class="st5" d="M231.88,100.47h-17.38c-.3,0-.54.24-.54.54v1.02c0,.3.24.54.54.54h7.6v23.21c0,.3.24.54.54.54h1.09c.3,0,.54-.24.54-.54v-23.21h7.6c.3,0,.54-.24.54-.54v-1.02c0-.3-.24-.54-.54-.54Z"/>
      <rect class="st5" x="243.69" y="100.47" width="2.17" height="25.86" rx=".54" ry=".54"/>
      <path class="st5" d="M278.44,100.47h-1.12c-.23,0-.43.14-.51.36l-8.4,23.4h-.42l-8.83-23.41c-.08-.21-.28-.35-.51-.35h-1.12c-.18,0-.34.09-.45.23s-.12.33-.06.5l9.37,24.78c.08.21.28.35.51.35h2.61c.23,0,.43-.14.51-.36l8.93-24.78c.06-.17.04-.35-.07-.5s-.27-.23-.44-.23Z"/>
      <path class="st5" d="M309.28,125.59l-9.88-24.78c-.08-.21-.28-.34-.5-.34h-2.65c-.22,0-.43.14-.51.35l-9.54,24.78c-.06.17-.04.35.06.5.1.15.27.24.45.24h1.09c.22,0,.43-.14.51-.35l3.25-8.48h12.22l3.38,8.48c.08.21.28.34.5.34h1.12c.18,0,.35-.09.45-.24.1-.15.12-.34.05-.5ZM297.82,102.58l5.11,12.83h-10.57l4.92-12.83h.54Z"/>
    </g>
    <g>
      <path class="st14" d="M138.22,28.28c1.95,1.41,3.21,3.12,3.78,5.14.11.39.44.69.84.76l36.82,6.7c.33.06.67-.07.88-.33,1.98-2.49,4.64-3.52,7.98-3.1.24.03.49-.08.62-.29l13.02-20.49c.11-.17,0-.4-.2-.42-15.23-1.95-30.21-.81-44.93,3.42-6.69,1.92-12.96,4.7-18.8,8.33-.11.06-.12.22-.01.29Z"/>
      <path class="st0" d="M194.06,40.63c1.26,2.2,1.66,4.53,1.2,7.02-.07.37.09.74.39.96l22.31,15.72c.21.14.47.16.69.06.13-.05.59-.25,1.36-.61,3.06-1.43,6.63.07,8.56,2.64.16.22.46.29.71.17l32.3-16.35c.18-.09.22-.32.09-.46-13.65-15.6-31.81-27.07-52.06-32.06-.36-.09-.75.06-.96.37l-14.55,21.49c-.22.32-.23.74-.04,1.08Z"/>
      <path class="st7" d="M213.88,74.21l.68-.35c.15-.08.21-.25.16-.4-.48-1.5-.52-2.92-.12-4.27.09-.28-.02-.59-.25-.77l-21.97-16.29c-.17-.12-.39-.12-.55.02-2.23,1.86-5.08,2.09-8.53.69-.24-.1-.53-.06-.73.12-2.01,1.68-4.01,3.41-6.01,5.17-5.52,4.88-11.1,9.7-16.73,14.46,7.47-4.74,16.33-7.48,25.82-7.48,10.54,0,20.29,3.38,28.23,9.12Z"/>
      <path class="st10" d="M150.16,80.64c-2.7,2.22-5.41,4.44-8.13,6.63l-5.63,4.46h6.08c2.04-4.06,4.63-7.79,7.68-11.09Z"/>
      <path class="st6" d="M128.86,41.73c.09-.33,0-.69-.25-.93-1.68-1.7-2.51-3.87-2.49-6.52,0-.11-.12-.16-.21-.09-4.85,4.06-8.86,7.36-12.62,11.36-4.42,4.7-8.1,9.24-11.03,13.61-3.78,5.65-6.95,11.84-9.51,18.58-.1.26-.01.55.21.73l17.05,13.27h5.27c3.88-14.21,8.41-30.87,13.58-50Z"/>
      <path class="st15" d="M140.59,81.47c13.48-11.12,22.83-19.24,38.51-32.76.25-.21.36-.55.27-.87l-.34-1.27c-.08-.29-.31-.51-.6-.56l-36.96-7.27c-.18-.03-.37.04-.47.19-1.55,2.25-3.63,3.6-6.23,4.05-.43.08-.78.39-.89.82-4.18,16.11-8.64,32.09-13.38,47.93h7.71c4.65-3.87,8.78-7.29,12.38-10.26Z"/>
      <path class="st1" d="M262.22,171.3l-37.16-16.35c-.13-.06-.29-.01-.37.11l-7.71,11.41-8.57,12.89c-.15.23-.17.53-.03.77,1.62,2.87,1.65,5.77.1,8.71-.5.94-.3,1.11.28,1.87,3.36,4.36,6.94,8.87,10.75,13.54.23.28.61.38.95.25,3.22-1.2,6.24-2.6,9.05-4.2,2.62-1.17,5.67-2.96,9.16-5.38,9.17-6.35,17.08-14.01,23.71-22.99.16-.21.08-.51-.17-.62Z"/>
      <path class="st4" d="M90.29,84.24c-.15-.12-.37-.06-.43.12-.9,2.41-1.63,4.87-2.2,7.37h12.26l-9.63-7.49Z"/>
      <path class="st13" d="M102.45,166.65c.12.16.36.15.46-.02,1.43-2.35,3.47-3.7,6.14-4.06.18-.03.33-.18.34-.36l2.32-27.21h-23.75c2.75,11.49,7.59,22.03,14.49,31.64Z"/>
      <path class="st11" d="M114.63,163c0,.05,0,.1.03.15.49.96,1.31.77,2.23.17,6.91-4.47,14.45-9.2,22.64-14.2.91-.55,1.62-1.01,2.12-1.36.27-.2.43-.51.43-.85-.03-1.68.3-3.16,1.01-4.44.14-.26.12-.57-.05-.81l-4.75-6.65h-21.4l-2.25,27.99Z"/>
      <path class="st2" d="M166.99,157.91c10,6.66,19.73,13.29,29.19,19.89.33.23.75.25,1.1.06,1.7-.92,3.56-1.27,5.59-1.05.42.04.84-.15,1.07-.51l15.11-23.77c.11-.18.04-.41-.15-.49l-2.77-1.22c-8.31,6.77-18.91,10.83-30.47,10.83-6.61,0-12.91-1.33-18.65-3.74Z"/>
      <path class="st9" d="M148.28,155.06c-.06-.32-.27-.59-.56-.73-1.23-.58-2.32-1.32-3.25-2.23-.23-.22-.59-.26-.86-.08-6.78,4.47-13.46,8.71-20.05,12.71-1.46.89-3.06,1.86-4.78,2.91-.22.13-.33.38-.29.63.28,1.73.18,3.4-.32,5.03-.09.3.02.62.27.8,10.83,7.67,22.2,15.8,34.09,24.4,1.25.9,1.85,1.6,3.17.63.27-.2.4-.53.35-.86l-7.77-43.21Z"/>
      <path class="st8" d="M193.44,185.15l.23-2.8c.03-.37-.14-.73-.45-.93l-39.87-27c-.12-.08-.28.02-.26.17l7.78,43.3c.03.15.14.27.29.31,1.38.35,2.58.95,3.63,1.79.3.24.72.28,1.06.1l27.02-14.07c.33-.17.54-.5.57-.87Z"/>
      <path class="st12" d="M151.52,203.56c-3.51-2.29-7.69-5.21-12.54-8.74-9.3-6.76-17.17-12.51-23.6-17.25-.33-.24-.77-.27-1.13-.09l-2.45,1.27c-.15.08-.19.29-.07.42,9.19,9.77,19.85,17.62,31.97,23.56,2.7,1.32,5.13,2.34,7.31,3.05.23.07.47-.07.51-.3l.24-1.35c.04-.22-.06-.45-.25-.57Z"/>
      <path class="st3" d="M204.75,192.89c-.1-.14-.28-.21-.45-.17-3.14.73-5.93.16-8.37-1.69-.27-.2-.63-.24-.93-.09l-26.76,13.25c-.3.15-.49.47-.47.81.09,1.58-.04,3.18-.42,4.8-.04.16.07.32.23.34,15.81,2.47,31.41,1.41,46.79-3.16.17-.05.24-.25.14-.39l-9.77-13.68Z"/>
    </g>
  </g>
  <g>
    <path class="st5" d="M311.23,94.81v-.88h4.24v.88h-4.24ZM312.87,99.49v-5.1h.97v5.1h-.97Z"/>
    <path class="st5" d="M318.75,97.64l1.43-3.71h1.12v5.56h-.91v-4.24l.04.24-1.29,3.3h-.78l-1.29-3.22.04-.32v4.24h-.91v-5.56h1.12l1.43,3.71Z"/>
  </g>
</svg>